<svg width="410" height="266" viewBox="0 0 410 266" fill="none" xmlns="http://www.w3.org/2000/svg">
<mask id="path-1-inside-1_288_69" fill="white">
<rect x="142" width="127" height="127" rx="10"/>
</mask>
<rect x="142" width="127" height="127" rx="10" stroke="black" stroke-width="36" mask="url(#path-1-inside-1_288_69)"/>
<path d="M225.364 72.3662L205.593 50" stroke="black" stroke-width="17" stroke-linecap="round"/>
<path d="M204.407 50L184.636 72.3662" stroke="black" stroke-width="17" stroke-linecap="round"/>
<mask id="path-4-inside-2_288_69" fill="white">
<rect x="142" y="139" width="127" height="127" rx="10"/>
</mask>
<rect x="142" y="139" width="127" height="127" rx="10" stroke="black" stroke-width="36" mask="url(#path-4-inside-2_288_69)"/>
<path d="M225.364 193L205.593 215.366" stroke="black" stroke-width="17" stroke-linecap="round"/>
<path d="M204.407 215.366L184.636 193" stroke="black" stroke-width="17" stroke-linecap="round"/>
<mask id="path-7-inside-3_288_69" fill="white">
<rect y="139" width="127" height="127" rx="10"/>
</mask>
<rect y="139" width="127" height="127" rx="10" stroke="black" stroke-width="36" mask="url(#path-7-inside-3_288_69)"/>
<path d="M71.1831 183.819L48.8169 203.59" stroke="black" stroke-width="17" stroke-linecap="round"/>
<path d="M48.8169 204.776L71.1831 224.547" stroke="black" stroke-width="17" stroke-linecap="round"/>
<mask id="path-10-inside-4_288_69" fill="white">
<rect x="283" y="139" width="127" height="127" rx="10"/>
</mask>
<rect x="283" y="139" width="127" height="127" rx="10" stroke="black" stroke-width="36" mask="url(#path-10-inside-4_288_69)"/>
<path d="M337.817 224.547L360.183 204.776" stroke="black" stroke-width="17" stroke-linecap="round"/>
<path d="M360.183 203.59L337.817 183.819" stroke="black" stroke-width="17" stroke-linecap="round"/>
</svg>
