<?xml version="1.0" standalone="no"?>
<!DOCTYPE svg PUBLIC "-//W3C//DTD SVG 20010904//EN"
 "http://www.w3.org/TR/2001/REC-SVG-20010904/DTD/svg10.dtd">
<svg version="1.0" xmlns="http://www.w3.org/2000/svg"
 width="189.000000pt" height="179.000000pt" viewBox="0 0 189.000000 179.000000"
 preserveAspectRatio="xMidYMid meet">

<g transform="translate(0.000000,179.000000) scale(0.100000,-0.100000)"
fill="#000000" stroke="none">
<path d="M1015 1723 c-11 -2 -50 -14 -88 -25 l-67 -22 -73 20 c-272 73 -505
-78 -552 -358 -3 -21 -21 -55 -42 -80 -51 -61 -100 -168 -108 -236 -12 -114
18 -199 116 -321 l59 -75 -6 -191 -7 -190 35 -31 c44 -38 205 -95 353 -124
171 -33 393 -46 597 -33 271 16 243 28 -65 28 -360 0 -541 20 -705 76 -63 22
-132 49 -152 59 l-37 19 5 198 4 198 -52 60 c-73 85 -110 162 -117 245 -10
115 33 240 107 310 30 29 39 47 49 99 7 36 24 86 37 113 33 66 120 150 191
184 53 27 67 29 168 29 61 0 133 -6 160 -13 44 -11 55 -11 90 5 32 14 67 18
170 18 130 0 130 0 209 -38 63 -30 96 -54 156 -116 54 -56 87 -81 111 -86 51
-11 139 -107 188 -205 38 -75 41 -89 41 -161 0 -116 -25 -173 -113 -260 l-71
-71 3 -101 c3 -141 -28 -310 -86 -470 -19 -55 2 -36 36 31 49 98 81 270 83
443 l1 94 66 65 c81 79 121 164 121 258 0 156 -121 342 -248 383 -46 14 -75
40 -107 95 -49 83 -143 143 -266 169 -67 14 -150 18 -194 8z"/>
<path d="M1080 1498 c-54 -15 -96 -53 -125 -113 -23 -46 -27 -65 -23 -113 6
-74 32 -128 77 -157 43 -28 66 -31 145 -21 104 14 176 87 176 179 0 96 -74
203 -157 226 -44 13 -46 13 -93 -1z m141 -64 c36 -34 53 -72 62 -135 13 -93
-24 -137 -129 -159 -83 -17 -130 -6 -158 38 -35 55 -40 110 -16 175 11 30 28
61 38 70 62 56 151 61 203 11z"/>
<path d="M578 1490 c-62 -11 -107 -68 -122 -152 -16 -86 31 -184 105 -221 95
-46 259 55 259 160 0 71 -103 213 -154 213 -13 0 -30 2 -38 4 -7 2 -30 0 -50
-4z m86 -44 c40 -17 77 -64 101 -128 17 -45 17 -48 -2 -80 -33 -57 -146 -103
-193 -78 -11 6 -31 27 -45 48 -50 73 -23 207 48 237 41 18 50 18 91 1z"/>
<path d="M1460 1186 c-64 -32 -92 -84 -87 -158 5 -60 35 -126 67 -146 10 -6
54 -14 97 -18 75 -6 80 -5 111 21 44 37 62 75 62 130 0 83 -59 163 -135 184
-54 15 -63 14 -115 -13z m163 -54 c47 -45 57 -131 21 -189 -42 -68 -172 -66
-215 4 -17 28 -21 45 -17 95 4 55 8 64 42 96 36 33 41 34 90 28 35 -5 59 -15
79 -34z"/>
<path d="M285 1126 c-54 -24 -69 -51 -73 -129 -2 -59 1 -78 17 -105 58 -92
172 -95 250 -7 30 35 33 43 29 86 -7 66 -45 120 -102 147 -52 25 -79 27 -121
8z m122 -53 c58 -38 71 -127 25 -173 -37 -36 -102 -49 -138 -25 -29 19 -54 71
-54 111 0 37 29 94 54 105 27 11 82 2 113 -18z"/>
<path d="M782 1020 c-97 -35 -138 -68 -186 -151 -38 -67 -37 -157 3 -220 38
-61 67 -82 150 -109 63 -20 85 -22 198 -17 149 5 227 28 291 83 45 38 61 75
64 149 2 43 -4 59 -36 112 -73 119 -182 173 -345 173 -58 -1 -103 -7 -139 -20z
m316 -45 c67 -31 95 -55 133 -114 24 -36 29 -56 29 -103 0 -81 -19 -122 -69
-148 -111 -56 -263 -67 -416 -31 -79 19 -105 29 -126 52 -36 38 -54 114 -40
165 16 60 94 152 149 177 99 43 247 44 340 2z"/>
</g>
</svg>
