<svg width="489" height="224" viewBox="0 0 489 224" fill="none" xmlns="http://www.w3.org/2000/svg">
<rect x="8" y="8" width="473" height="208" rx="32" fill="white" stroke="black" stroke-width="16"/>
<path d="M180.004 150C175.227 150 170.849 149.057 166.869 147.172C162.977 145.216 159.838 142.668 157.449 139.525C155.15 136.313 154 132.786 154 128.946V124.127C154 123.778 154.221 123.603 154.663 123.603H169.523C169.876 123.603 170.053 123.778 170.053 124.127V128.946C170.053 131.25 171.026 133.24 172.972 134.916C174.918 136.522 177.262 137.325 180.004 137.325C182.745 137.325 185.089 136.487 187.035 134.811C188.981 133.135 189.954 131.18 189.954 128.946C189.954 126.362 187.831 124.127 183.586 122.242C182.171 121.613 179.959 120.635 176.952 119.309C173.945 117.982 171.115 116.725 168.461 115.538C163.597 113.303 159.97 110.51 157.582 107.158C155.282 103.736 154.133 99.8953 154.133 95.6355C154.133 91.7249 155.327 88.2332 157.715 85.1606C160.103 82.0182 163.243 79.5391 167.134 77.7235C171.115 75.9078 175.404 75 180.004 75C184.691 75 188.981 75.9427 192.873 77.8282C196.853 79.6439 199.993 82.1229 202.292 85.2654C204.68 88.338 205.874 91.7947 205.874 95.6355V104.225C205.874 104.504 205.698 104.644 205.344 104.644H190.485C190.131 104.644 189.954 104.504 189.954 104.225L189.821 95.6355C189.821 93.1913 188.848 91.2011 186.902 89.6648C184.957 88.1285 182.657 87.3603 180.004 87.3603C177.262 87.3603 174.918 88.1983 172.972 89.8743C171.026 91.4804 170.053 93.4008 170.053 95.6355C170.053 97.9399 170.672 99.8603 171.911 101.397C173.149 102.933 175.404 104.399 178.677 105.796C179.119 106.006 179.959 106.39 181.198 106.948C182.524 107.437 183.94 108.031 185.443 108.729C186.947 109.358 188.273 109.916 189.423 110.405C190.662 110.894 191.413 111.208 191.679 111.348C196.101 113.303 199.595 115.712 202.16 118.575C204.725 121.369 206.007 124.825 206.007 128.946C206.007 132.926 204.813 136.522 202.425 139.735C200.125 142.877 196.986 145.391 193.005 147.277C189.114 149.092 184.78 150 180.004 150Z" fill="black"/>
<path d="M222.398 148.953C222.045 148.953 221.868 148.778 221.868 148.429L222 76.4665C222 76.1872 222.221 76.0475 222.664 76.0475H237.39C237.832 76.0475 238.054 76.1872 238.054 76.4665L237.921 104.958H257.822V76.4665C257.822 76.1872 257.998 76.0475 258.352 76.0475H273.079C273.521 76.0475 273.742 76.1872 273.742 76.4665L274.007 148.429C274.007 148.778 273.786 148.953 273.344 148.953H258.485C258.043 148.953 257.822 148.778 257.822 148.429V117.633H237.921V148.429C237.921 148.778 237.744 148.953 237.39 148.953H222.398Z" fill="black"/>
<path d="M292.132 148.953C291.689 148.953 291.468 148.778 291.468 148.429L291.601 76.4665C291.601 76.1872 291.778 76.0475 292.132 76.0475H306.991C307.345 76.0475 307.521 76.1872 307.521 76.4665L307.654 148.429C307.654 148.778 307.477 148.953 307.123 148.953H292.132Z" fill="black"/>
<path d="M326.621 148.953C326.179 148.953 325.958 148.778 325.958 148.429L326.223 76.4665C326.223 76.1872 326.4 76.0475 326.754 76.0475H369.208C369.651 76.0475 369.872 76.1872 369.872 76.4665V88.3031C369.872 88.5824 369.695 88.7221 369.341 88.7221H342.144V104.958H369.341C369.695 104.958 369.872 105.133 369.872 105.482L370.004 117.318C370.004 117.598 369.783 117.737 369.341 117.737H342.144V148.429C342.144 148.778 341.922 148.953 341.48 148.953H326.621Z" fill="black"/>
<path d="M401.699 148.953C401.346 148.953 401.169 148.778 401.169 148.429V88.7221H383.922C383.479 88.7221 383.258 88.5475 383.258 88.1983L383.391 76.4665C383.391 76.1872 383.568 76.0475 383.922 76.0475H434.337C434.779 76.0475 435 76.1872 435 76.4665V88.1983C435 88.5475 434.823 88.7221 434.469 88.7221H417.089L417.222 148.429C417.222 148.778 417.045 148.953 416.691 148.953H401.699Z" fill="black"/>
<mask id="path-3-outside-1_287_92" maskUnits="userSpaceOnUse" x="40" y="41" width="93" height="112" fill="black">
<rect fill="white" x="40" y="41" width="93" height="112"/>
<path fill-rule="evenodd" clip-rule="evenodd" d="M106.703 100.25L86.3516 68L66 100.25H77.8516V139H93.8516V100.25H106.703Z"/>
</mask>
<path fill-rule="evenodd" clip-rule="evenodd" d="M106.703 100.25L86.3516 68L66 100.25H77.8516V139H93.8516V100.25H106.703Z" fill="white"/>
<path d="M86.3516 68L98.1912 60.5285L86.3516 41.7669L74.512 60.5285L86.3516 68ZM106.703 100.25V114.25H132.093L118.543 92.7785L106.703 100.25ZM66 100.25L54.1604 92.7785L40.6106 114.25H66V100.25ZM77.8516 100.25H91.8516V86.25H77.8516V100.25ZM77.8516 139H63.8516V153H77.8516V139ZM93.8516 139V153H107.852V139H93.8516ZM93.8516 100.25V86.25H79.8516V100.25H93.8516ZM74.512 75.4715L94.8636 107.721L118.543 92.7785L98.1912 60.5285L74.512 75.4715ZM77.8396 107.721L98.1912 75.4715L74.512 60.5285L54.1604 92.7785L77.8396 107.721ZM77.8516 86.25H66V114.25H77.8516V86.25ZM91.8516 139V100.25H63.8516V139H91.8516ZM93.8516 125H77.8516V153H93.8516V125ZM79.8516 100.25V139H107.852V100.25H79.8516ZM106.703 86.25H93.8516V114.25H106.703V86.25Z" fill="black" mask="url(#path-3-outside-1_287_92)"/>
<line x1="66" y1="172" x2="107" y2="172" stroke="black" stroke-width="14"/>
</svg>
