<svg width="489" height="194" viewBox="0 0 489 194" fill="none" xmlns="http://www.w3.org/2000/svg">
<rect x="5" y="21" width="479" height="168" rx="35" fill="black" stroke="black" stroke-width="10"/>
<rect x="5" y="5" width="479" height="162" rx="35" fill="white" stroke="black" stroke-width="10"/>
<path d="M149 126C145.4 126 142.1 125.1 139.1 123.3C136.167 121.433 133.8 119 132 116C130.267 112.933 129.4 109.567 129.4 105.9V101.3C129.4 100.967 129.567 100.8 129.9 100.8H141.1C141.367 100.8 141.5 100.967 141.5 101.3V105.9C141.5 108.1 142.233 110 143.7 111.6C145.167 113.133 146.933 113.9 149 113.9C151.067 113.9 152.833 113.1 154.3 111.5C155.767 109.9 156.5 108.033 156.5 105.9C156.5 103.433 154.9 101.3 151.7 99.5C150.633 98.9 148.967 97.9667 146.7 96.7C144.433 95.4333 142.3 94.2333 140.3 93.1C136.633 90.9667 133.9 88.3 132.1 85.1C130.367 81.8333 129.5 78.1667 129.5 74.1C129.5 70.3667 130.4 67.0333 132.2 64.1C134 61.1 136.367 58.7333 139.3 57C142.3 55.2667 145.533 54.4 149 54.4C152.533 54.4 155.767 55.3 158.7 57.1C161.7 58.8333 164.067 61.2 165.8 64.2C167.6 67.1333 168.5 70.4333 168.5 74.1V82.3C168.5 82.5667 168.367 82.7 168.1 82.7H156.9C156.633 82.7 156.5 82.5667 156.5 82.3L156.4 74.1C156.4 71.7667 155.667 69.8667 154.2 68.4C152.733 66.9333 151 66.2 149 66.2C146.933 66.2 145.167 67 143.7 68.6C142.233 70.1333 141.5 71.9667 141.5 74.1C141.5 76.3 141.967 78.1333 142.9 79.6C143.833 81.0667 145.533 82.4667 148 83.8C148.333 84 148.967 84.3667 149.9 84.9C150.9 85.3667 151.967 85.9333 153.1 86.6C154.233 87.2 155.233 87.7333 156.1 88.2C157.033 88.6667 157.6 88.9667 157.8 89.1C161.133 90.9667 163.767 93.2667 165.7 96C167.633 98.6667 168.6 101.967 168.6 105.9C168.6 109.7 167.7 113.133 165.9 116.2C164.167 119.2 161.8 121.6 158.8 123.4C155.867 125.133 152.6 126 149 126ZM181.055 125C180.721 125 180.555 124.833 180.555 124.5L180.755 55.8C180.755 55.5333 180.888 55.4 181.155 55.4H200.355C206.488 55.4 211.321 57.2667 214.855 61C218.455 64.7333 220.255 69.8 220.255 76.2C220.255 80.9333 219.321 85.0333 217.455 88.5C215.588 91.9667 213.155 94.6333 210.155 96.5C207.155 98.3667 203.888 99.3 200.355 99.3H192.755V124.5C192.755 124.833 192.588 125 192.255 125H181.055ZM192.755 87.2H200.355C202.488 87.2 204.321 86.2 205.855 84.2C207.455 82.1333 208.255 79.4667 208.255 76.2C208.255 73.6 207.555 71.4667 206.155 69.8C204.755 68.1333 202.821 67.3 200.355 67.3L192.755 67.4V87.2ZM223.659 124.5L236.059 55.8C236.125 55.5333 236.292 55.4 236.559 55.4H251.059C251.325 55.4 251.492 55.5333 251.559 55.8L263.459 124.5C263.525 124.833 263.392 125 263.059 125H251.959C251.692 125 251.525 124.833 251.459 124.5L250.359 117.2H236.759L235.659 124.5C235.592 124.833 235.425 125 235.159 125H224.059C223.792 125 223.659 124.833 223.659 124.5ZM238.759 106.5H248.359L244.259 78.4L243.659 74.7L243.259 78.4L238.759 106.5ZM290.986 126C287.319 126 283.986 125.1 280.986 123.3C278.053 121.433 275.719 118.967 273.986 115.9C272.253 112.833 271.386 109.4 271.386 105.6L271.486 74.4C271.486 70.7333 272.319 67.4 273.986 64.4C275.719 61.3333 278.053 58.9 280.986 57.1C283.986 55.2333 287.319 54.3 290.986 54.3C294.653 54.3 297.953 55.2 300.886 57C303.819 58.8 306.153 61.2333 307.886 64.3C309.619 67.3 310.486 70.6667 310.486 74.4V79C310.486 79.2667 310.353 79.4 310.086 79.4H298.886C298.619 79.4 298.486 79.2667 298.486 79V74.4C298.486 72.2 297.753 70.3 296.286 68.7C294.886 67.1 293.119 66.3 290.986 66.3C288.586 66.3 286.753 67.1333 285.486 68.8C284.219 70.4 283.586 72.2667 283.586 74.4V105.6C283.586 108.067 284.286 110.067 285.686 111.6C287.153 113.133 288.919 113.9 290.986 113.9C293.119 113.9 294.886 113.067 296.286 111.4C297.753 109.667 298.486 107.733 298.486 105.6V101C298.486 100.733 298.619 100.6 298.886 100.6H310.186C310.453 100.6 310.586 100.733 310.586 101V105.6C310.586 109.4 309.686 112.833 307.886 115.9C306.153 118.967 303.819 121.433 300.886 123.3C297.953 125.1 294.653 126 290.986 126ZM323.298 125C323.032 125 322.898 124.833 322.898 124.5L322.998 55.8C322.998 55.5333 323.132 55.4 323.398 55.4H355.498C355.765 55.4 355.898 55.5667 355.898 55.9V67.1C355.898 67.3667 355.765 67.5 355.498 67.5H334.998V83.1H355.498C355.765 83.1 355.898 83.2333 355.898 83.5L355.998 94.8C355.998 95.0667 355.865 95.2 355.598 95.2H334.998V112.7H355.598C355.865 112.7 355.998 112.867 355.998 113.2V124.6C355.998 124.867 355.865 125 355.598 125H323.298Z" fill="black"/>
</svg>
