<svg width="354" height="141" viewBox="0 0 354 141" fill="none" xmlns="http://www.w3.org/2000/svg">
<path fill-rule="evenodd" clip-rule="evenodd" d="M19.5 37H190C184.239 52.6654 183.254 61.56 183 77.5C188.447 103.129 191.8 110.586 198 119H19.5V37Z" fill="#E62952"/>
<path fill-rule="evenodd" clip-rule="evenodd" d="M68 0H287.5C311.135 5.83273 320 15.5 331 26.5C345 46 345.442 61.0972 345 79.5H224.5C237.007 108.511 242.435 112.734 273 119V141H68C51.5995 139.912 42.1663 136.836 25 126.5C13.5936 115.403 7.4541 106.694 1 86L0 60.5C3.31438 44.5033 7.57401 34.4466 23 15.5C36.3578 5.87324 47.6854 1.59286 68 0ZM221 19C207.754 39.4442 201.5 49.5 201.5 73.5C201.5 97.5 210.635 106.052 221 119H65C49 119 29.5 97.5 29.5 97.5C29.5 97.5 21.5 79 21.5 69C21.5 59 21.5 52 29.5 40.5C37.5 29 48.755 23.4336 65 19H221Z" fill="#0B1532"/>
</svg>
