<?xml version="1.0" encoding="UTF-8"?>
<svg xmlns="http://www.w3.org/2000/svg" xmlns:xlink="http://www.w3.org/1999/xlink" width="50px" height="47px" viewBox="0 0 49 47" version="1.1">
<g id="surface1">
<path style=" stroke:none;fill-rule:nonzero;fill:rgb(0%,0%,0%);fill-opacity:1;" d="M 26.34375 1.757812 C 26.058594 1.808594 25.046875 2.125 24.058594 2.414062 L 22.320312 2.988281 L 20.425781 2.464844 C 13.367188 0.550781 7.320312 4.511719 6.097656 11.855469 C 6.019531 12.40625 5.554688 13.296875 5.007812 13.953125 C 3.683594 15.554688 2.414062 18.359375 2.207031 20.144531 C 1.894531 23.132812 2.671875 25.363281 5.214844 28.5625 L 6.746094 30.527344 L 6.59375 35.539062 L 6.410156 40.523438 L 7.320312 41.335938 C 8.460938 42.332031 12.640625 43.828125 16.480469 44.585938 C 20.917969 45.453125 26.679688 45.792969 31.972656 45.453125 C 39.007812 45.03125 38.28125 44.71875 30.289062 44.71875 C 20.945312 44.71875 16.246094 44.195312 11.992188 42.726562 C 10.355469 42.148438 8.566406 41.441406 8.046875 41.175781 L 7.085938 40.679688 L 7.214844 35.484375 L 7.320312 30.292969 L 5.96875 28.71875 C 4.074219 26.488281 3.113281 24.46875 2.933594 22.292969 C 2.671875 19.277344 3.789062 16 5.710938 14.164062 C 6.488281 13.402344 6.722656 12.929688 6.980469 11.566406 C 7.164062 10.621094 7.605469 9.3125 7.941406 8.601562 C 8.796875 6.871094 11.054688 4.667969 12.898438 3.777344 C 14.273438 3.070312 14.636719 3.015625 17.257812 3.015625 C 18.84375 3.015625 20.710938 3.171875 21.410156 3.355469 C 22.554688 3.644531 22.839844 3.644531 23.746094 3.226562 C 24.578125 2.859375 25.484375 2.753906 28.160156 2.753906 C 31.535156 2.753906 31.535156 2.753906 33.582031 3.75 C 35.21875 4.539062 36.074219 5.167969 37.632812 6.792969 C 39.035156 8.261719 39.890625 8.917969 40.511719 9.046875 C 41.835938 9.335938 44.121094 11.855469 45.390625 14.425781 C 46.378906 16.390625 46.457031 16.757812 46.457031 18.648438 C 46.457031 21.691406 45.808594 23.183594 43.523438 25.46875 L 41.679688 27.328125 L 41.757812 29.976562 C 41.835938 33.675781 41.03125 38.109375 39.527344 42.304688 C 39.035156 43.746094 39.578125 43.25 40.460938 41.492188 C 41.734375 38.921875 42.5625 34.410156 42.617188 29.875 L 42.640625 27.40625 L 44.355469 25.703125 C 46.457031 23.632812 47.496094 21.402344 47.496094 18.9375 C 47.496094 14.84375 44.355469 9.964844 41.058594 8.890625 C 39.863281 8.523438 39.113281 7.84375 38.28125 6.398438 C 37.007812 4.222656 34.570312 2.648438 31.378906 1.96875 C 29.640625 1.601562 27.484375 1.496094 26.34375 1.757812 Z M 26.34375 1.757812 "/>
<path style=" stroke:none;fill-rule:nonzero;fill:rgb(0%,0%,0%);fill-opacity:1;" d="M 28.03125 7.660156 C 26.628906 8.050781 25.539062 9.046875 24.785156 10.621094 C 24.1875 11.828125 24.085938 12.328125 24.1875 13.585938 C 24.34375 15.527344 25.019531 16.941406 26.1875 17.703125 C 27.304688 18.4375 27.898438 18.515625 29.949219 18.253906 C 32.648438 17.886719 34.519531 15.972656 34.519531 13.558594 C 34.519531 11.042969 32.597656 8.234375 30.441406 7.632812 C 29.300781 7.292969 29.25 7.292969 28.03125 7.660156 Z M 31.6875 9.335938 C 32.625 10.230469 33.066406 11.226562 33.296875 12.878906 C 33.636719 15.316406 32.675781 16.472656 29.949219 17.046875 C 27.796875 17.492188 26.578125 17.207031 25.847656 16.050781 C 24.941406 14.609375 24.8125 13.167969 25.433594 11.460938 C 25.71875 10.675781 26.160156 9.863281 26.421875 9.625 C 28.03125 8.15625 30.339844 8.027344 31.6875 9.335938 Z M 31.6875 9.335938 "/>
<path style=" stroke:none;fill-rule:nonzero;fill:rgb(0%,0%,0%);fill-opacity:1;" d="M 15 7.867188 C 13.390625 8.15625 12.222656 9.652344 11.835938 11.855469 C 11.417969 14.109375 12.640625 16.679688 14.558594 17.652344 C 17.027344 18.859375 21.28125 16.207031 21.28125 13.453125 C 21.28125 11.59375 18.609375 7.867188 17.285156 7.867188 C 16.949219 7.867188 16.507812 7.816406 16.296875 7.761719 C 16.117188 7.710938 15.519531 7.761719 15 7.867188 Z M 17.234375 9.023438 C 18.269531 9.46875 19.230469 10.699219 19.855469 12.378906 C 20.296875 13.558594 20.296875 13.636719 19.800781 14.476562 C 18.945312 15.972656 16.011719 17.179688 14.792969 16.523438 C 14.507812 16.367188 13.988281 15.816406 13.625 15.265625 C 12.328125 13.351562 13.027344 9.835938 14.871094 9.046875 C 15.933594 8.578125 16.167969 8.578125 17.234375 9.023438 Z M 17.234375 9.023438 "/>
<path style=" stroke:none;fill-rule:nonzero;fill:rgb(0%,0%,0%);fill-opacity:1;" d="M 37.890625 15.839844 C 36.230469 16.679688 35.503906 18.042969 35.632812 19.984375 C 35.765625 21.558594 36.542969 23.289062 37.371094 23.816406 C 37.632812 23.972656 38.773438 24.183594 39.890625 24.285156 C 41.835938 24.445312 41.964844 24.417969 42.769531 23.734375 C 43.914062 22.765625 44.378906 21.769531 44.378906 20.328125 C 44.378906 18.148438 42.847656 16.050781 40.875 15.5 C 39.476562 15.105469 39.242188 15.132812 37.890625 15.839844 Z M 42.121094 17.257812 C 43.34375 18.4375 43.601562 20.695312 42.667969 22.214844 C 41.578125 24 38.203125 23.945312 37.085938 22.109375 C 36.644531 21.375 36.542969 20.929688 36.644531 19.617188 C 36.75 18.175781 36.855469 17.941406 37.734375 17.101562 C 38.671875 16.234375 38.800781 16.207031 40.070312 16.367188 C 40.980469 16.496094 41.601562 16.757812 42.121094 17.257812 Z M 42.121094 17.257812 "/>
<path style=" stroke:none;fill-rule:nonzero;fill:rgb(0%,0%,0%);fill-opacity:1;" d="M 7.398438 17.414062 C 5.996094 18.042969 5.605469 18.753906 5.503906 20.796875 C 5.449219 22.347656 5.527344 22.84375 5.941406 23.550781 C 7.449219 25.964844 10.40625 26.042969 12.433594 23.734375 C 13.210938 22.816406 13.289062 22.609375 13.183594 21.480469 C 13.003906 19.75 12.015625 18.332031 10.535156 17.625 C 9.1875 16.96875 8.488281 16.917969 7.398438 17.414062 Z M 10.5625 18.804688 C 12.066406 19.800781 12.40625 22.136719 11.210938 23.34375 C 10.25 24.285156 8.566406 24.628906 7.628906 24 C 6.878906 23.5 6.230469 22.136719 6.230469 21.085938 C 6.230469 20.117188 6.980469 18.621094 7.628906 18.332031 C 8.332031 18.042969 9.757812 18.28125 10.5625 18.804688 Z M 10.5625 18.804688 "/>
<path style=" stroke:none;fill-rule:nonzero;fill:rgb(0%,0%,0%);fill-opacity:1;" d="M 20.296875 20.195312 C 17.777344 21.113281 16.714844 21.980469 15.46875 24.15625 C 14.480469 25.914062 14.507812 28.273438 15.546875 29.925781 C 16.53125 31.527344 17.285156 32.078125 19.4375 32.785156 C 21.074219 33.308594 21.644531 33.363281 24.578125 33.230469 C 28.445312 33.097656 30.46875 32.496094 32.128906 31.054688 C 33.296875 30.058594 33.714844 29.085938 33.792969 27.144531 C 33.84375 26.019531 33.6875 25.597656 32.855469 24.207031 C 30.960938 21.085938 28.132812 19.671875 23.902344 19.671875 C 22.398438 19.695312 21.230469 19.855469 20.296875 20.195312 Z M 28.496094 21.375 C 30.234375 22.1875 30.960938 22.816406 31.949219 24.367188 C 32.570312 25.308594 32.703125 25.835938 32.703125 27.066406 C 32.703125 29.191406 32.207031 30.265625 30.910156 30.949219 C 28.03125 32.417969 24.085938 32.707031 20.113281 31.761719 C 18.0625 31.261719 17.390625 31 16.84375 30.398438 C 15.910156 29.402344 15.441406 27.40625 15.804688 26.070312 C 16.222656 24.496094 18.246094 22.082031 19.671875 21.429688 C 22.242188 20.300781 26.082031 20.273438 28.496094 21.375 Z M 28.496094 21.375 "/>
</g>
</svg>
