<?xml version="1.0" encoding="UTF-8"?>
<svg xmlns="http://www.w3.org/2000/svg" xmlns:xlink="http://www.w3.org/1999/xlink" width="80px" height="76px" viewBox="0 0 80 76" version="1.1">
<g id="surface1">
<path style=" stroke:none;fill-rule:nonzero;fill:rgb(0%,0%,0%);fill-opacity:1;" d="M 43.007812 2.839844 C 42.542969 2.925781 40.890625 3.433594 39.28125 3.902344 L 36.441406 4.835938 L 33.347656 3.988281 C 21.820312 0.890625 11.949219 7.292969 9.957031 19.167969 C 9.832031 20.058594 9.066406 21.503906 8.179688 22.5625 C 6.015625 25.148438 3.941406 29.6875 3.601562 32.570312 C 3.09375 37.40625 4.363281 41.011719 8.515625 46.183594 L 11.015625 49.367188 L 10.761719 57.464844 L 10.464844 65.523438 L 11.949219 66.839844 C 13.8125 68.449219 20.636719 70.867188 26.90625 72.097656 C 34.152344 73.496094 43.558594 74.050781 52.203125 73.496094 C 63.6875 72.820312 62.5 72.308594 49.449219 72.308594 C 34.195312 72.308594 26.527344 71.460938 19.578125 69.085938 C 16.90625 68.152344 13.984375 67.007812 13.136719 66.585938 L 11.566406 65.777344 L 11.78125 57.382812 L 11.949219 48.984375 L 9.746094 46.441406 C 6.652344 42.835938 5.085938 39.570312 4.789062 36.050781 C 4.363281 31.171875 6.1875 25.871094 9.320312 22.902344 C 10.59375 21.671875 10.972656 20.910156 11.398438 18.703125 C 11.695312 17.175781 12.414062 15.054688 12.964844 13.910156 C 14.363281 11.113281 18.050781 7.550781 21.058594 6.105469 C 23.304688 4.960938 23.898438 4.878906 28.179688 4.878906 C 30.761719 4.878906 33.8125 5.132812 34.957031 5.429688 C 36.820312 5.894531 37.289062 5.894531 38.769531 5.214844 C 40.128906 4.621094 41.609375 4.453125 45.972656 4.453125 C 51.484375 4.453125 51.484375 4.453125 54.832031 6.066406 C 57.5 7.335938 58.898438 8.355469 61.441406 10.984375 C 63.730469 13.359375 65.128906 14.417969 66.144531 14.632812 C 68.304688 15.097656 72.035156 19.167969 74.109375 23.324219 C 75.71875 26.507812 75.847656 27.101562 75.847656 30.152344 C 75.847656 35.074219 74.789062 37.492188 71.058594 41.179688 L 68.050781 44.191406 L 68.179688 48.476562 C 68.304688 54.457031 66.992188 61.621094 64.535156 68.410156 C 63.730469 70.742188 64.617188 69.933594 66.058594 67.09375 C 68.136719 62.9375 69.492188 55.644531 69.578125 48.304688 L 69.617188 44.320312 L 72.414062 41.5625 C 75.847656 38.210938 77.542969 34.605469 77.542969 30.621094 C 77.542969 24.003906 72.414062 16.117188 67.035156 14.378906 C 65.085938 13.785156 63.855469 12.679688 62.5 10.347656 C 60.421875 6.828125 56.441406 4.285156 51.230469 3.179688 C 48.390625 2.585938 44.871094 2.417969 43.007812 2.839844 Z M 43.007812 2.839844 "/>
<path style=" stroke:none;fill-rule:nonzero;fill:rgb(0%,0%,0%);fill-opacity:1;" d="M 45.761719 12.382812 C 43.472656 13.019531 41.695312 14.632812 40.464844 17.175781 C 39.492188 19.128906 39.320312 19.933594 39.492188 21.96875 C 39.746094 25.105469 40.847656 27.398438 42.753906 28.628906 C 44.578125 29.816406 45.550781 29.941406 48.898438 29.519531 C 53.304688 28.925781 56.355469 25.828125 56.355469 21.925781 C 56.355469 17.855469 53.21875 13.316406 49.703125 12.339844 C 47.839844 11.789062 47.753906 11.789062 45.761719 12.382812 Z M 51.738281 15.097656 C 53.261719 16.539062 53.984375 18.152344 54.363281 20.824219 C 54.914062 24.769531 53.347656 26.632812 48.898438 27.566406 C 45.382812 28.289062 43.390625 27.820312 42.203125 25.957031 C 40.71875 23.621094 40.507812 21.289062 41.527344 18.535156 C 41.992188 17.261719 42.710938 15.945312 43.136719 15.566406 C 45.761719 13.191406 49.535156 12.976562 51.738281 15.097656 Z M 51.738281 15.097656 "/>
<path style=" stroke:none;fill-rule:nonzero;fill:rgb(0%,0%,0%);fill-opacity:1;" d="M 24.492188 12.722656 C 21.863281 13.191406 19.957031 15.605469 19.320312 19.167969 C 18.644531 22.816406 20.636719 26.972656 23.769531 28.542969 C 27.796875 30.492188 34.746094 26.210938 34.746094 21.757812 C 34.746094 18.746094 30.382812 12.722656 28.21875 12.722656 C 27.667969 12.722656 26.949219 12.636719 26.609375 12.554688 C 26.3125 12.46875 25.339844 12.554688 24.492188 12.722656 Z M 28.136719 14.589844 C 29.832031 15.308594 31.398438 17.304688 32.414062 20.019531 C 33.136719 21.925781 33.136719 22.054688 32.332031 23.410156 C 30.933594 25.828125 26.144531 27.777344 24.152344 26.71875 C 23.6875 26.464844 22.839844 25.574219 22.246094 24.683594 C 20.128906 21.585938 21.269531 15.902344 24.28125 14.632812 C 26.015625 13.867188 26.398438 13.867188 28.136719 14.589844 Z M 28.136719 14.589844 "/>
<path style=" stroke:none;fill-rule:nonzero;fill:rgb(0%,0%,0%);fill-opacity:1;" d="M 61.863281 25.617188 C 59.152344 26.972656 57.964844 29.179688 58.179688 32.316406 C 58.390625 34.863281 59.660156 37.660156 61.015625 38.507812 C 61.441406 38.761719 63.304688 39.101562 65.128906 39.273438 C 68.304688 39.527344 68.515625 39.484375 69.832031 38.382812 C 71.695312 36.8125 72.457031 35.199219 72.457031 32.867188 C 72.457031 29.347656 69.957031 25.957031 66.738281 25.066406 C 64.449219 24.429688 64.066406 24.472656 61.863281 25.617188 Z M 68.769531 27.90625 C 70.761719 29.816406 71.1875 33.460938 69.660156 35.921875 C 67.882812 38.804688 62.371094 38.722656 60.550781 35.753906 C 59.832031 34.566406 59.660156 33.84375 59.832031 31.722656 C 60 29.390625 60.167969 29.007812 61.609375 27.652344 C 63.136719 26.253906 63.347656 26.210938 65.421875 26.464844 C 66.90625 26.675781 67.921875 27.101562 68.769531 27.90625 Z M 68.769531 27.90625 "/>
<path style=" stroke:none;fill-rule:nonzero;fill:rgb(0%,0%,0%);fill-opacity:1;" d="M 12.078125 28.160156 C 9.789062 29.179688 9.152344 30.324219 8.984375 33.632812 C 8.898438 36.132812 9.027344 36.941406 9.703125 38.085938 C 12.160156 41.988281 16.992188 42.113281 20.296875 38.382812 C 21.566406 36.898438 21.695312 36.558594 21.527344 34.734375 C 21.230469 31.933594 19.617188 29.644531 17.203125 28.5 C 15 27.441406 13.855469 27.355469 12.078125 28.160156 Z M 17.246094 30.410156 C 19.703125 32.019531 20.253906 35.792969 18.304688 37.746094 C 16.738281 39.273438 13.984375 39.824219 12.457031 38.804688 C 11.230469 38 10.167969 35.792969 10.167969 34.097656 C 10.167969 32.527344 11.398438 30.113281 12.457031 29.644531 C 13.601562 29.179688 15.933594 29.558594 17.246094 30.410156 Z M 17.246094 30.410156 "/>
<path style=" stroke:none;fill-rule:nonzero;fill:rgb(0%,0%,0%);fill-opacity:1;" d="M 33.136719 32.65625 C 29.027344 34.140625 27.289062 35.539062 25.253906 39.058594 C 23.644531 41.902344 23.6875 45.71875 25.382812 48.390625 C 26.992188 50.976562 28.21875 51.867188 31.738281 53.011719 C 34.40625 53.863281 35.339844 53.945312 40.128906 53.734375 C 46.441406 53.523438 49.746094 52.546875 52.457031 50.214844 C 54.363281 48.601562 55.042969 47.035156 55.167969 43.894531 C 55.253906 42.070312 55 41.394531 53.644531 39.144531 C 50.550781 34.097656 45.933594 31.808594 39.027344 31.808594 C 36.566406 31.851562 34.660156 32.105469 33.136719 32.65625 Z M 46.527344 34.566406 C 49.363281 35.878906 50.550781 36.898438 52.160156 39.398438 C 53.179688 40.925781 53.390625 41.773438 53.390625 43.769531 C 53.390625 47.203125 52.585938 48.941406 50.464844 50.042969 C 45.761719 52.417969 39.320312 52.886719 32.839844 51.359375 C 29.492188 50.554688 28.390625 50.128906 27.5 49.152344 C 25.972656 47.542969 25.210938 44.320312 25.804688 42.15625 C 26.484375 39.613281 29.789062 35.710938 32.117188 34.648438 C 36.3125 32.824219 42.585938 32.785156 46.527344 34.566406 Z M 46.527344 34.566406 "/>
</g>
</svg>
